<?xml version="1.0" encoding="utf-8"?>
<!DOCTYPE svg PUBLIC "-//W3C//DTD SVG 1.1//EN" "http://www.w3.org/Graphics/SVG/1.1/DTD/svg11.dtd">
<svg version="1.1" id="Calque_1" xmlns="http://www.w3.org/2000/svg" xmlns:xlink="http://www.w3.org/1999/xlink" x="0px" y="0px"
	 width="377px" height="77px" viewBox="0 0 377 77" enable-background="new 0 0 369.431 106.872"
	 xml:space="preserve">
<g>
	<path fill="#4A90E2" fill-opacity=".85" fill-rule="evenodd" style="mix-blend-mode:multiply" d="M17.582,69.351c0,13.807,11.193,25,25,25h287c13.807,0,25-11.193,25-25v-27c0-13.807-11.193-25-25-25h-287
		c-13.807,0-25,11.193-25,25V69.351z"/>
	<path fill="none" stroke="#FFFFFF" stroke-width="2" stroke-miterlimit="10" d="M17.582,69.351c0,13.807,11.193,25,25,25h287
		c13.807,0,25-11.193,25-25v-27c0-13.807-11.193-25-25-25h-287c-13.807,0-25,11.193-25,25V69.351z"/>
</g>
</svg>
